<svg width="64" height="64" viewBox="0 0 64 64" fill="none" xmlns="http://www.w3.org/2000/svg">
<rect width="64" height="64" fill="white"/>
<path d="M63.8 48.8531H0L31.9 15L63.8 48.8531ZM17.3269 32.097L21.6714 36.7053L26.0161 32.097L21.6714 27.475L17.3269 32.097ZM21.6714 47.5578L26.0161 42.9496L21.6714 38.3276L17.3269 42.9496L21.6714 47.5578ZM42.1969 47.5578L46.5414 42.9496L42.1969 38.3276L37.7839 42.9496L42.1969 47.5578ZM37.0656 22.0351C37.0395 22.08 37.0049 22.1214 36.963 22.1578C35.6117 23.6166 34.2433 25.0755 32.8579 26.5207C32.7381 26.6434 32.8579 26.7252 32.8579 26.8343L36.8604 31.088L37.0485 31.2652L41.393 26.6706L37.0656 22.0351ZM11.4429 47.5578L11.614 47.3806L15.6164 43.1405C15.6802 43.0872 15.7159 43.0164 15.7159 42.9427C15.7159 42.8691 15.6802 42.7983 15.6164 42.7451C14.402 41.4908 13.2218 40.2092 12.0245 38.9411L11.4429 38.3276L7.09839 42.9496L11.4429 47.5578ZM22.4412 26.657L26.7857 31.2652L26.9226 31.1426L31.0106 26.807C31.1474 26.657 31.0106 26.5752 31.0106 26.4661L27.0081 22.2396L26.837 22.0624L22.4412 26.657ZM22.4412 37.5641L26.7857 42.1724L27.0081 41.9543C28.3081 40.591 29.6251 39.2275 30.9421 37.7687C30.9789 37.7418 31.0084 37.7092 31.0285 37.6728C31.0486 37.6364 31.059 37.5971 31.059 37.5573C31.059 37.5176 31.0486 37.4783 31.0285 37.4418C31.0084 37.4055 30.9789 37.3728 30.9421 37.346C29.7106 36.0507 28.4791 34.7556 27.2646 33.4467L26.7857 32.9559L22.4412 37.5641ZM42.9667 37.5641L47.3112 42.1724L51.6557 37.5641L47.3112 32.9559L42.9667 37.5641ZM37.0656 32.9423V33.0377L32.9433 37.4142C32.8065 37.5369 32.8579 37.6187 32.9433 37.7278L36.7748 41.818C36.8774 41.9407 36.9971 42.0633 37.1339 42.1998L41.4786 37.5915L37.0656 32.9423ZM16.5743 42.1452C16.5949 42.1052 16.6238 42.0684 16.6599 42.0361L20.782 37.6595C20.9018 37.5232 20.782 37.4551 20.782 37.346L16.7282 33.0922C16.6751 33.0312 16.6118 32.9761 16.5401 32.9286L12.2126 37.5232L16.5743 42.1452ZM42.1286 36.6916L46.4731 32.0833L42.1286 27.4887L37.7839 32.097L42.1286 36.6916ZM31.8658 25.7844L36.2104 21.1762L31.9342 16.6633H31.8487L27.6751 21.1353C27.6494 21.1679 27.6357 21.2057 27.6357 21.2443C27.6357 21.2829 27.6494 21.3208 27.6751 21.3534L31.8658 25.7844ZM31.8658 36.6916L36.2104 32.0833L31.9 27.475L27.5555 32.097L31.8658 36.6916ZM31.8658 47.5987L36.2104 42.9905L31.8658 38.3685L27.5555 42.9496L31.8658 47.5987ZM52.3913 47.5987L56.7358 42.9905L52.4083 38.4095H52.3229L48.1323 42.8133C47.9954 42.9632 48.1323 43.0314 48.1323 43.1268L51.5531 46.8216L52.3913 47.5987ZM2.46306 47.8578H10.2627L6.39711 43.7676L2.46306 47.8578ZM53.6057 47.8578H61.3369L57.4713 43.7676L53.6057 47.8578ZM30.6685 47.8578L26.7857 43.7676L22.903 47.8578H30.6685ZM43.3771 47.8578H51.1084L47.2427 43.7676L43.3771 47.8578ZM40.8799 47.8578L37.0143 43.7676L33.1487 47.8578H40.8799ZM20.3544 47.8578L16.4888 43.7676L12.6232 47.8578H20.3544Z" fill="black"/>
</svg>
