<?xml version="1.0" encoding="UTF-8" standalone="no"?>
<svg
   xmlns:dc="http://purl.org/dc/elements/1.1/"
   xmlns:cc="http://creativecommons.org/ns#"
   xmlns:rdf="http://www.w3.org/1999/02/22-rdf-syntax-ns#"
   xmlns:svg="http://www.w3.org/2000/svg"
   xmlns="http://www.w3.org/2000/svg"
   xmlns:sodipodi="http://sodipodi.sourceforge.net/DTD/sodipodi-0.dtd"
   xmlns:inkscape="http://www.inkscape.org/namespaces/inkscape"
   width="24"
   height="24"
   viewBox="0 0 24 24"
   fill="none"
   id="svg2"
   version="1.1"
   inkscape:version="0.91 r13725"
   sodipodi:docname="donate-icon.svg">
  <metadata
     id="metadata10">
    <rdf:RDF>
      <cc:Work
         rdf:about="">
        <dc:format>image/svg+xml</dc:format>
        <dc:type
           rdf:resource="http://purl.org/dc/dcmitype/StillImage" />
        <dc:title></dc:title>
      </cc:Work>
    </rdf:RDF>
  </metadata>
  <defs
     id="defs8" />
  <sodipodi:namedview
     pagecolor="#ffffff"
     bordercolor="#666666"
     borderopacity="1"
     objecttolerance="10"
     gridtolerance="10"
     guidetolerance="10"
     inkscape:pageopacity="0"
     inkscape:pageshadow="2"
     inkscape:window-width="1920"
     inkscape:window-height="1017"
     id="namedview6"
     showgrid="false"
     inkscape:zoom="4.9166667"
     inkscape:cx="26.49666"
     inkscape:cy="-13.170614"
     inkscape:window-x="1912"
     inkscape:window-y="-8"
     inkscape:window-maximized="1"
     inkscape:current-layer="svg2" />
  <g
     style="fill:none"
     id="g4150"
     transform="translate(6.893557,3.5039025)">
    <path
       id="path4142"
       style="fill:#000000"
       d="m 7.19824,11.6602 c 0,-0.4981 -0.1582,-0.9082 -0.47461,-1.2305 C 6.40723,10.1016 5.87988,9.80859 5.1416,9.55078 4.40332,9.28711 3.8291,9.04395 3.41895,8.82129 2.05371,8.08887 1.37109,7.00488 1.37109,5.56934 c 0,-0.97266 0.2959,-1.77247 0.8877,-2.39942 0.5918,-0.62695 1.39453,-0.99902 2.4082,-1.11621 l 0,-1.916015 1.40625,0 0,1.933595 C 7.09277,2.21777 7.88086,2.65137 8.4375,3.37207 8.99414,4.08691 9.27246,5.01855 9.27246,6.16699 l -2.12695,0 C 7.14551,5.42871 6.97852,4.84863 6.64453,4.42676 6.31641,3.99902 5.86816,3.78516 5.2998,3.78516 4.7373,3.78516 4.29785,3.9375 3.98145,4.24219 3.66504,4.54688 3.50684,4.9834 3.50684,5.55176 c 0,0.50976 0.15527,0.91992 0.46582,1.23047 0.3164,0.30468 0.84961,0.59472 1.59961,0.87011 0.75,0.27539 1.33886,0.53028 1.7666,0.76465 0.42773,0.23438 0.78808,0.50391 1.08105,0.8086 0.29297,0.29882 0.51856,0.64453 0.67676,1.03711 0.1582,0.3926 0.2373,0.8525 0.2373,1.3799 0,0.9902 -0.30468,1.7929 -0.91406,2.4082 -0.60351,0.6152 -1.44726,0.9785 -2.53125,1.0898 l 0,1.7139 -1.39746,0 0,-1.7051 C 3.33105,15.0205 2.4375,14.6045 1.81055,13.9014 1.18945,13.1982 0.878906,12.2666 0.878906,11.1064 l 2.135744,0 c 0,0.7383 0.18457,1.3096 0.55371,1.7139 0.375,0.4043 0.90234,0.6065 1.58203,0.6065 0.66797,0 1.17481,-0.1612 1.52051,-0.4834 0.35156,-0.3223 0.52734,-0.75 0.52734,-1.2832 z M 5.106443,-3.5039025 c -6.6214947,0 -12,5.3785053 -12,12 0,6.6214945 5.3785053,11.9999995 12,11.9999995 6.621495,0 12,-5.378505 12,-11.9999995 0,-6.6214947 -5.378505,-12 -12,-12 z m 0,1 c 6.081055,0 11,4.9189454 11,11 0,6.0810545 -4.918945,10.9999995 -11,10.9999995 -6.0810546,0 -11,-4.918945 -11,-10.9999995 0,-6.0810546 4.9189454,-11 11,-11 z" />
  </g>
</svg>
